<?xml version="1.0" encoding="utf-8"?>
<!-- Generator: Adobe Illustrator 25.4.1, SVG Export Plug-In . SVG Version: 6.00 Build 0)  -->
<svg version="1.1" id="Layer_1" xmlns="http://www.w3.org/2000/svg" xmlns:xlink="http://www.w3.org/1999/xlink" x="0px" y="0px"
	 viewBox="0 0 21 22" style="enable-background:new 0 0 21 22;" xml:space="preserve">
<style type="text/css">
	.st0{fill:#ECECEC;}
</style>
<g>
	<path class="st0" d="M18.75586,8.05536h-5.36133V2.69354c0-1.10303-0.89746-2.00049-2-2.00049h-9.25
		c-1.10254,0-2,0.89746-2,2.00049v9.25c0,1.10254,0.89746,2,2,2h5.36133v5.3623c0,1.10254,0.89746,1.99902,2,1.99902h9.25
		c1.10254,0,2-0.89648,2-1.99902v-9.25049C20.75586,8.95282,19.8584,8.05536,18.75586,8.05536z M2.14453,12.74432
		c-0.44092,0-0.7998-0.35938-0.7998-0.80078v-9.25c0-0.44141,0.35889-0.80029,0.7998-0.80029h9.25
		c0.44141,0,0.80078,0.35889,0.80078,0.80029v5.36182H9.50586c-0.28558,0-0.55621,0.06244-0.80225,0.17084L7.09387,4.34607
		C7.05853,4.25183,7.00256,4.17822,6.92603,4.12524c-0.0766-0.05304-0.159-0.07953-0.24738-0.07953
		C6.58447,4.03979,6.49609,4.06335,6.41364,4.11639C6.3371,4.16937,6.2782,4.24591,6.237,4.34607L3.99323,9.7699
		C3.97559,9.82288,3.96674,9.87,3.96674,9.91125c0.00592,0.11182,0.04126,0.20612,0.10602,0.28265
		c0.06476,0.07068,0.16193,0.10602,0.2915,0.10602c0.08832,0,0.16785-0.02655,0.23853-0.07953s0.12366-0.12659,0.159-0.22083
		l0.52264-1.25439h2.71021L7.9989,8.75525C7.69592,9.1059,7.50586,9.55682,7.50586,10.05536v2.68896H2.14453z M7.63617,7.89716
		H5.63776l0.992-2.38074L7.63617,7.89716z M19.55664,19.30585c0,0.44043-0.35938,0.7998-0.80078,0.7998h-9.25
		c-0.44092,0-0.7998-0.35938-0.7998-0.7998v-9.25049c0-0.44092,0.35889-0.7998,0.7998-0.7998h9.25
		c0.44141,0,0.80078,0.35889,0.80078,0.7998V19.30585z"/>
	<path class="st0" d="M17.10101,12.5332c-0.23334-0.1333-0.53668-0.20001-0.91003-0.20001
		c-0.40668,0-0.7533,0.10669-1.03998,0.32001c-0.28668,0.21338-0.42999,0.51343-0.42999,0.90002
		c0,0.28668,0.08667,0.53339,0.26001,0.73999c0.17328,0.20001,0.39667,0.35339,0.66998,0.45996h-2.5v0.74005h2.46997
		c0.1933,0,0.37335-0.01331,0.54004-0.04004c0.17328-0.03326,0.34326-0.08661,0.51001-0.15997
		c0.07996,0.09998,0.12,0.20996,0.12,0.33002c0,0.31995-0.21002,0.57336-0.63,0.75995
		c-0.41333,0.18671-1.01672,0.28003-1.81,0.28003c-0.76001,0-1.35999-0.09003-1.79999-0.27002s-0.76001-0.41327-0.96002-0.70001
		c-0.1933-0.29327-0.29999-0.60327-0.32001-0.92999c0.12671,0.06,0.26001,0.1134,0.40002,0.16003
		c0.14667,0.03998,0.30328,0.06,0.46997,0.06c0.52673,0,0.91669-0.12659,1.16998-0.38c0.2533-0.26001,0.38-0.59332,0.38-1
		c0-0.39331-0.12-0.70331-0.35999-0.92999c-0.23999-0.22662-0.56-0.34003-0.96002-0.34003
		c-0.35999,0-0.68329,0.09003-0.96997,0.27002c-0.28003,0.1734-0.5033,0.42999-0.66998,0.77002
		c-0.16675,0.33997-0.25,0.75-0.25,1.22998c0,0.53339,0.13,1.01666,0.38995,1.45001c0.26672,0.43335,0.68335,0.77667,1.25,1.02997
		c0.56671,0.2467,1.31006,0.37,2.23004,0.37c0.68671,0,1.24329-0.05328,1.66998-0.15997
		c0.43329-0.11334,0.76331-0.26001,0.98999-0.44c0.23334-0.17999,0.39331-0.37659,0.48004-0.59003
		c0.08667-0.21326,0.12994-0.41998,0.12994-0.62c0-0.15997-0.02997-0.30328-0.08997-0.42999
		c-0.06-0.12659-0.14001-0.23657-0.23999-0.33002c0.14667-0.14661,0.26331-0.31659,0.34998-0.50995
		c0.09332-0.19336,0.14001-0.40662,0.14001-0.64001c0-0.23999-0.0567-0.46661-0.16998-0.67999
		C17.50427,12.8399,17.33429,12.66663,17.10101,12.5332z M11.67102,13.30322c0.17999-0.17334,0.39667-0.26001,0.64996-0.26001
		c0.17334,0,0.31329,0.05341,0.42004,0.15997c0.10669,0.10004,0.15997,0.2467,0.15997,0.44
		c0,0.20001-0.07001,0.35669-0.21002,0.47003c-0.1333,0.1134-0.33325,0.16998-0.59998,0.16998
		c-0.16669,0-0.31671-0.02332-0.45001-0.07001c-0.12671-0.04657-0.23669-0.10327-0.33002-0.16998
		C11.37097,13.72321,11.49103,13.47662,11.67102,13.30322z M16.85101,14.18323c-0.06,0.12-0.14001,0.22339-0.23999,0.31
		c-0.01331,0-0.02673-0.0033-0.04004-0.01001c-0.28668-0.09332-0.53326-0.2066-0.73999-0.34003
		c-0.20667-0.1333-0.31-0.31329-0.31-0.53998c0-0.16663,0.06-0.29999,0.17999-0.40002
		c0.12671-0.09998,0.29999-0.14996,0.52002-0.14996c0.2533,0,0.43671,0.07001,0.54999,0.20996
		c0.12,0.14001,0.17999,0.3067,0.17999,0.5C16.95099,13.92322,16.91772,14.06317,16.85101,14.18323z"/>
</g>
</svg>
