<svg width="16" height="16" viewBox="0 0 16 16" fill="none" xmlns="http://www.w3.org/2000/svg">
<path d="M6.27027 0C2.8073 0 2.02656e-06 2.8073 2.02656e-06 6.27027C2.02656e-06 9.73324 2.8073 12.5405 6.27027 12.5405C7.76812 12.5405 9.1433 12.0153 10.2217 11.139L14.8927 15.81C15.146 16.0633 15.5567 16.0633 15.81 15.81C16.0633 15.5567 16.0633 15.146 15.81 14.8927L11.139 10.2217C12.0153 9.1433 12.5405 7.76812 12.5405 6.27027C12.5405 2.8073 9.73325 0 6.27027 0ZM6.27027 1.2973C9.01677 1.2973 11.2432 3.52377 11.2432 6.27027C11.2432 9.01677 9.01677 11.2432 6.27027 11.2432C3.52377 11.2432 1.2973 9.01677 1.2973 6.27027C1.2973 3.52377 3.52377 1.2973 6.27027 1.2973Z" fill="white"/>
</svg>
